<svg xmlns="http://www.w3.org/2000/svg" width="2048" height="2048" viewBox="449 371 1160 1160">
  <rect x="449" y="371" width="1160" height="1160" fill="#0a0f28"/>
  <g transform="translate(0.000000,2048.000000) scale(0.100000,-0.100000)" fill="white" stroke="none">
    <path d="M9435 12212 c-22 -11 -61 -42 -87 -70 -48 -51 -48 -51 -48 -397 0
-377 9 -475 57 -615 76 -223 180 -374 355 -516 99 -79 272 -166 398 -198 190
-50 440 -50 615 0 125 35 257 101 367 184 93 70 93 70 96 25 8 -112 -43 -245
-128 -339 -81 -88 -227 -153 -420 -187 -36 -6 -232 -14 -437 -18 -357 -6 -373
-7 -400 -27 -15 -12 -37 -36 -48 -55 -15 -25 -20 -52 -20 -104 0 -57 4 -76 23
-102 12 -17 42 -41 65 -52 41 -20 59 -21 368 -20 178 0 358 4 399 9 205 24
362 66 505 137 128 63 236 159 318 281 51 77 96 199 113 302 15 93 27 787 25
1344 -2 350 -3 354 -63 398 -28 19 -45 23 -114 23 -73 0 -84 -3 -117 -28 -20
-15 -42 -38 -49 -50 -10 -16 -14 -129 -19 -432 -5 -394 -6 -413 -28 -475 -13
-36 -41 -101 -64 -145 -31 -61 -63 -101 -132 -170 -70 -70 -107 -98 -165 -126
-101 -49 -158 -68 -249 -80 -161 -23 -360 11 -491 83 -78 43 -176 123 -221
181 -49 61 -101 154 -129 228 -42 115 -50 202 -50 572 0 394 1 390 -76 428
-62 29 -103 32 -149 11z"/>
    <path d="M12408 12202 c-177 -2 -177 -2 -180 -155 -2 -83 -2 -585 0 -1114 3
-963 3 -963 660 -963 376 0 695 4 747 10 245 28 479 125 675 280 181 142 319
354 375 573 62 246 33 496 -83 722 -161 312 -457 531 -839 621 -51 12 -138 17
-343 20 -462 7 -826 9 -1012 6z m1222 -396 c201 -33 380 -125 511 -263 75 -78
125 -158 160 -255 58 -157 47 -317 -30 -473 -49 -98 -117 -183 -203 -252 -74
-59 -188 -124 -274 -153 -141 -49 -166 -51 -771 -57 -315 -3 -584 -2 -598 1
-25 6 -25 6 -25 736 0 730 0 730 573 730 441 0 591 -3 657 -14z"/>
    <path d="M6810 12174 c-178 -12 -389 -52 -504 -95 -85 -31 -180 -88 -241 -141
-30 -27 -70 -76 -90 -108 -80 -131 -104 -260 -87 -457 7 -70 18 -148 26 -173
24 -80 60 -144 102 -187 50 -49 97 -75 185 -100 59 -17 118 -18 804 -18 672 0
745 -2 795 -17 62 -19 107 -56 116 -94 4 -14 4 -58 0 -97 -8 -82 -42 -154 -96
-199 -73 -60 -210 -110 -386 -139 -44 -7 -320 -14 -754 -18 -532 -5 -690 -9
-708 -19 -12 -7 -34 -31 -48 -54 -21 -33 -27 -55 -27 -102 0 -44 6 -73 21
-103 43 -84 -15 -78 797 -78 701 0 724 1 860 23 168 27 235 45 339 89 150 64
265 166 324 288 48 97 64 182 64 325 -1 177 -34 310 -99 402 -41 57 -106 101
-193 131 -65 22 -66 22 -805 22 -407 0 -758 4 -780 9 -52 11 -93 32 -127 64
-26 24 -28 31 -28 107 0 66 5 90 25 131 44 89 117 142 260 188 176 56 213 59
955 65 491 4 691 9 705 18 35 20 53 46 70 105 13 47 14 65 5 100 -16 58 -43
99 -78 121 -28 16 -78 17 -694 15 -364 -1 -683 -3 -708 -4z"/>
  </g>
</svg>